<svg width="8" height="8" viewBox="0 0 8 8" fill="none" xmlns="http://www.w3.org/2000/svg">
<path fill-rule="evenodd" clip-rule="evenodd" d="M0.381924 3.18094C0.18682 3.37605 0.18682 3.69237 0.381924 3.88747L3.17857 6.68412C3.18818 6.69563 3.19839 6.70681 3.2092 6.71762C3.38068 6.8891 3.6458 6.90987 3.83995 6.77992C3.86734 6.76176 3.89332 6.74061 3.91746 6.71648C3.92227 6.71166 3.92697 6.70677 3.93155 6.70181L6.74474 3.88862C6.93984 3.69352 6.93984 3.37719 6.74474 3.18209C6.54963 2.98699 6.23331 2.98699 6.0382 3.18209L3.5639 5.65639L1.08846 3.18094C0.893353 2.98584 0.577027 2.98584 0.381924 3.18094Z" fill="#A1A7AF"/>
</svg>
