<svg width="17" height="17" viewBox="0 0 17 17" fill="none" xmlns="http://www.w3.org/2000/svg">
<path fill-rule="evenodd" clip-rule="evenodd" d="M1.75247 11.9622C1.62647 11.8363 1.42147 11.8363 1.29447 11.9622C1.20247 12.0542 0.0514708 15.4932 0.00847085 15.6243C-0.0455292 15.8573 0.163471 16.0602 0.397471 16.0093C0.520471 15.9683 3.96447 14.8153 4.05647 14.7242C4.18247 14.5972 4.18247 14.3923 4.05647 14.2663L1.75247 11.9622ZM10.7485 2.84625C10.5805 2.67625 10.3065 2.67725 10.1385 2.84625L2.21147 10.7723C2.04347 10.9412 2.04247 11.2133 2.21147 11.3833L4.63547 13.8073C4.80347 13.9753 5.07747 13.9753 5.24547 13.8073L13.1725 5.88025C13.3415 5.71125 13.3415 5.43825 13.1725 5.26925L10.7485 2.84625ZM14.0735 0.28425C13.6935 -0.09475 13.0795 -0.09475 12.6995 0.28425L11.2685 1.71625C11.0995 1.88425 11.0995 2.15725 11.2685 2.32725L13.6915 4.75025C13.8605 4.91925 14.1335 4.91925 14.3025 4.75025L15.7335 3.31925C16.1135 2.93925 16.1135 2.32425 15.7335 1.94425L14.0735 0.28425Z" fill="#354052"/>
</svg>
